<svg xmlns="http://www.w3.org/2000/svg" xmlns:xlink="http://www.w3.org/1999/xlink" viewBox="0,0,256,256" width="50px" height="50px" fill-rule="nonzero"><g fill="#ffffff" fill-rule="nonzero" stroke="none" stroke-width="1" stroke-linecap="butt" stroke-linejoin="miter" stroke-miterlimit="10" stroke-dasharray="" stroke-dashoffset="0" font-family="none" font-weight="none" font-size="none" text-anchor="none" style="mix-blend-mode: normal"><g transform="scale(5.12,5.12)"><path d="M32,11h5c0.552,0 1,-0.448 1,-1v-6.737c0,-0.524 -0.403,-0.96 -0.925,-0.997c-1.591,-0.113 -4.699,-0.266 -6.934,-0.266c-6.141,0 -10.141,3.68 -10.141,10.368v6.632h-7c-0.552,0 -1,0.448 -1,1v7c0,0.552 0.448,1 1,1h7v19c0,0.552 0.448,1 1,1h7c0.552,0 1,-0.448 1,-1v-19h7.222c0.51,0 0.938,-0.383 0.994,-0.89l0.778,-7c0.066,-0.592 -0.398,-1.11 -0.994,-1.11h-8v-5c0,-1.657 1.343,-3 3,-3z"></path></g></g></svg>